Simulation
nRows=24
nColumns=15
endheader
time  TH_x TH_y TH_z SC_y  SC_z  SC_x  AC_y  AC_z  AC_x  GH_y  GH_z  GH_yy  EL_x  PS_y
0.0  0.000000  0.000000  0.000000  -30.230521912362533  -0.5613811933207976  37.773083848139166  47.702609466080126  -24.343324712313823  -29.465750653942095  43.680970555987315  5.333524357600217  -14.33784090433882  22.889780793100613  0.000000
0.031  0.000000  0.000000  0.000000  -30.192517394653  -0.3491094784786558  38.181827461493235  47.50965441692255  -24.3174615171039  -29.86951530292602  39.491993474441585  5.4573251320935965  -10.242845278609513  22.817129700474563  0.000000
0.062  0.000000  0.000000  0.000000  -30.14630095987459  -0.2869756801335318  38.61169125866594  47.2746290522279  -24.3950187033727  -30.228204877835356  35.72914701054477  5.613330917709708  -6.5653596609920175  22.75990622165023  0.000000
0.093  0.000000  0.000000  0.000000  -30.134413656785334  -0.33317456153697506  39.043096102173834  47.0464435488554  -24.59559405461443  -30.576212885874593  33.05144905887696  5.8525540598757395  -4.006216761748855  22.674621061585455  0.000000
0.124  0.000000  0.000000  0.000000  -30.131548390000756  -0.4246136644561435  39.4738083194519  46.841821634284216  -24.89847577085774  -30.935559735527278  31.652696245615658  6.15113963697219  -2.7597756774544986  22.57142503948381  0.000000
0.155  0.000000  0.000000  0.000000  -30.147249658121858  -0.5287891823713146  39.914758933952044  46.649093100246425  -25.273687222174743  -31.31502346497369  31.28295295385022  6.503642497466372  -2.5888860029992284  22.446067235696454  0.000000
0.186  0.000000  0.000000  0.000000  -30.183473292124702  -0.6304290876800203  40.36054399402435  46.459839178818264  -25.683253907914626  -31.715284527074672  31.59686901019554  6.91818966611874  -3.165958172931855  22.30223778324575  0.000000
0.217  0.000000  0.000000  0.000000  -30.242142779797504  -0.7238763620995813  40.80982319728178  46.265988175432  -26.097524783401102  -32.128089852641814  32.25078216191556  7.405140932802266  -4.159968313276885  22.138672893240418  0.000000
0.248  0.000000  0.000000  0.000000  -30.318776597682128  -0.8069500338789413  41.258401355599005  46.070319703166135  -26.498476283659716  -32.546923804886966  33.01448658434479  7.974071200065952  -5.350337813443279  21.960908762750282  0.000000
0.279  0.000000  0.000000  0.000000  -30.40995317723017  -0.8761919236812709  41.70854100645894  45.88098236712957  -26.878772448162035  -32.96253961898075  33.73881454677225  8.630095205227162  -6.587272137508338  21.774876545160513  0.000000
0.31  0.000000  0.000000  0.000000  -30.50698540331249  -0.9300954405406461  42.157633812680885  45.70289333190093  -27.232958181883447  -33.36511295041599  34.32841602232064  9.370881482224467  -7.773531737575753  21.58930664520509  0.000000
0.34099999999999997  0.000000  0.000000  0.000000  -30.606283758438792  -0.9691322175717612  42.60592497833212  45.5465580861753  -27.56157087953723  -33.742177472087896  34.73214007592256  10.194646266191798  -8.855928275402347  21.41534271184424  0.000000
0.372  0.000000  0.000000  0.000000  -30.703403833495333  -0.9962266880057068  43.05044132376873  45.419991208711465  -27.86801510306101  -34.08198756394762  34.9083887772231  11.097328597400184  -9.795327917312752  21.271826706393107  0.000000
0.403  0.000000  0.000000  0.000000  -30.80096788716005  -1.0156081058128026  43.49264949261363  45.332534194773274  -28.159624505632706  -34.37309368254832  34.83111314257327  12.076940528912372  -10.569302841269796  21.178733898837883  0.000000
0.434  0.000000  0.000000  0.000000  -30.896663867273237  -1.030321029097612  43.93133032104619  45.289252704245904  -28.44416019067289  -34.6094048368604  34.493563786037406  13.130644560820858  -11.169606253096276  21.15318378980286  0.000000
0.46499999999999997  0.000000  0.000000  0.000000  -30.987935579147113  -1.0403921023729712  44.370203392789605  45.2907107004718  -28.725939329032368  -34.78822538600077  33.919203733786766  14.254511496648213  -11.604845633649251  21.196227912077962  0.000000
0.496  0.000000  0.000000  0.000000  -31.0641285385751  -1.0418461768212204  44.808646031824935  45.334266356218016  -29.005468309583502  -34.91273276736678  33.16350447438068  15.444519878381076  -11.902081605042081  21.290181716945167  0.000000
0.527  0.000000  0.000000  0.000000  -31.116200366524126  -1.0280358805149974  45.25023991340197  45.41210834496822  -29.276444709498637  -34.98796915736979  32.29121325840271  16.694241232095607  -12.08883771672968  21.40613747230254  0.000000
0.558  0.000000  0.000000  0.000000  -31.138080384773634  -0.991968602276506  45.69350494410765  45.51703082686526  -29.530642428006516  -35.02264363857577  31.37363594605321  17.998925196629248  -12.203890152389542  21.51616921817262  0.000000
0.589  0.000000  0.000000  0.000000  -31.13622689639458  -0.9278167548175376  46.14145435046273  45.640036911636116  -29.75744800783749  -35.025446136538186  30.47359062208561  19.353042362640924  -12.287396754841406  21.6023123829296  0.000000
0.62  0.000000  0.000000  0.000000  -31.11922735560387  -0.8318559646447222  46.592520044183125  45.77472788929277  -29.949278439288157  -35.00579489253521  29.64129153843402  20.752081865566932  -12.379611222780365  21.65700587706109  0.000000
0.651  0.000000  0.000000  0.000000  -31.100177107866124  -0.7038799814902553  47.04941781305448  45.91724596495398  -30.101202325271153  -34.96876053323081  28.90295311189206  22.19148296051057  -12.506188550468224  21.67904942034823  0.000000
0.6819999999999999  0.000000  0.000000  0.000000  -31.08261367618995  -0.5477687374534731  47.510060391600135  46.067731748165805  -30.21485086924784  -34.91717671432247  28.255182154703746  23.668581176082142  -12.670239687346855  21.671043793818008  0.000000
0.713  0.000000  0.000000  0.000000  -31.067060870294927  -0.3716491233266478  47.97649605604032  46.22925026466762  -30.295049042031213  -34.85006754605662  27.668837969712417  25.1814253194533  -12.851905183353404  21.63918072438465  0.000000
